<svg xmlns="http://www.w3.org/2000/svg" viewBox="0 0 128 128" fill="#76B900">
  <path d="M71.5 21.7c-13.2-5.7-25.8-8.3-38.5-8.3-17.3 0-32.6 5.9-33 5.9v61.4c0 4.9 3.8 8.7 8.7 8.7h8.3c4.9 0 8.7-3.8 8.7-8.7V47.5c8.3-2.7 17.3-4.9 25.8-4.9 6.4 0 12.9 1.6 19.3 4.9v21.7c0 4.9 3.8 8.7 8.7 8.7h8.3c4.9 0 8.7-3.8 8.7-8.7V42.1c-6.4-8.7-15.4-15.4-25-20.4zm-47.8 45.8V44.2c-4.3 1.6-8.3 3.8-12.9 5.9v17.3h12.9zm47.8-14.5c-4.9-1.6-10.5-2.7-15.4-2.7-9.1 0-18.2 2.7-26.4 6.4v15.4c7.7 4.3 16.8 6.4 25.8 6.4 5.4 0 10.5-1.1 15.9-2.7V53z"/>
  <path d="M102.3 47.5c-17.3-10.5-36.6-15.9-56.4-15.9-20.9 0-39.6 7.7-40.9 8.3v66.8c0 6.4 4.9 11.3 11.3 11.3h11.3c6.4 0 11.3-4.9 11.3-11.3V67.5c10.5-3.8 21.7-6.4 32.6-6.4 8.3 0 16.8 2.2 25 6.4v28.2c0 6.4 4.9 11.3 11.3 11.3h11.3c6.4 0 11.3-4.9 11.3-11.3V67.5c-8.3-9.1-19.3-18.2-28.1-20z"/>
</svg>
